<svg id="Group_5" data-name="Group 5" xmlns="http://www.w3.org/2000/svg" xmlns:xlink="http://www.w3.org/1999/xlink" width="303.561" height="115.049" viewBox="0 0 303.561 115.049">
  <defs>
    <clipPath id="clip-path">
      <rect id="Rectangle_1" data-name="Rectangle 1" width="303.561" height="115.049" fill="#fff"/>
    </clipPath>
  </defs>
  <g id="Group_1" data-name="Group 1" clip-path="url(#clip-path)">
    <path id="Path_1" data-name="Path 1" d="M33.963,115.556l-.286-.046c-.835,2.114-1.67,4.228-2.585,6.538,1.9-.019,3.563.074,5.409-.08-.9-2.266-1.717-4.339-2.537-6.411m-32.517-3.8c3.619-.428,3.617-.428,4.921,2.609q2.661,6.2,5.331,12.394a2.449,2.449,0,0,0,.642,1.145c.458-.278.523-.8.709-1.227,1.987-4.576,3.988-9.144,5.908-13.746.42-1.008.933-1.5,2.042-1.33.472.074.961.013,1.494.121-.414.3-.92.469-1.113.964a2.916,2.916,0,0,0-.109,1.449q.651,4.945,1.323,9.891c.242,1.794.5,3.584.76,5.375.046.34.118.675.152,1.015a1.509,1.509,0,0,0,1.336,1.519,1.723,1.723,0,0,0,1.75-1.062c.212-.438.408-.887.588-1.34q3.359-8.45,6.715-16.9c.176-.436.214-.954.66-1.273.567.216.58.773.75,1.188q3.449,8.492,6.863,17c.4.99.732,2.039,1.923,2.475H39.774a1.22,1.22,0,0,0,.222-1.5c-.954-2.357-1.928-4.705-2.864-7.069a1.1,1.1,0,0,0-1.217-.794c-1.369.041-2.743.046-4.112,0a1.181,1.181,0,0,0-1.3.9c-.9,2.326-1.836,4.635-2.753,6.953-.191.479-.537.969.211,1.5h-7.5c.887-.606.621-1.421.521-2.181-.42-3.152-.871-6.3-1.312-9.448q-.313-2.243-.626-4.488l-.294-.067c-2.408,5.331-4.635,10.747-7.18,16.429-2.444-5.578-4.761-10.858-7.053-16.086-.6.08-.537.425-.572.694-.624,4.506-1.238,9.013-1.867,13.519-.09.655-.106,1.258.565,1.676H0c1.093-.464,1.111-1.284,1.219-2.029.539-3.727,1.055-7.46,1.578-11.191.191-1.356.4-2.709.572-4.068.2-1.634-.2-2.276-1.923-3.016" transform="translate(0 -17.392)" fill="#fff"/>
    <path id="Path_2" data-name="Path 2" d="M57.937,116.955v3.958c0,.049.005.1,0,.147-.039.467.111.74.645.714.925-.039,1.863.031,2.779-.09a3.929,3.929,0,0,0,3.542-3.206,5.033,5.033,0,0,0-4.723-6.189c-.439-.026-.882.01-1.317-.031-.673-.059-.975.152-.942.892.055,1.268.014,2.539.014,3.807m-3.455-5.215c2.83,0,5.669-.124,8.489.031,3.377.188,5.12,3.2,3.841,6.346a6.631,6.631,0,0,1-2.029,2.653c-.338.276-.689.533-1.088.84a59.719,59.719,0,0,0,5.686,8.053c1.65,1.864,2.959,2.126,5.362,1.245a1.7,1.7,0,0,1,.438-.03,5.769,5.769,0,0,1-7.708.023,20.2,20.2,0,0,1-2.286-2.864,23.122,23.122,0,0,1-2.58-3.908c-.877-2.057-2.467-1.828-4.114-1.774-.472.015-.554.286-.554.67.005,2.5,0,4.994.01,7.489a1.432,1.432,0,0,0,1.029,1.575h-4.9c1.47-.444,1.446-1.37,1.446-2.269.008-2.74.005-5.481.005-8.22,0-2.545.014-5.089-.01-7.633-.008-.867.059-1.82-1.041-2.228" transform="translate(-8.447 -17.445)" fill="#fff"/>
    <path id="Path_3" data-name="Path 3" d="M194.585,117.03c0,.588-.036,1.179.008,1.761.073.961-.472,2.307.242,2.795.851.577,2.189.252,3.3.087a3.856,3.856,0,0,0,3.175-2.3,5.1,5.1,0,0,0-4.23-7.089c-.438-.031-.879-.041-1.32-.036-1.145.013-1.158.018-1.17,1.116-.015,1.224,0,2.446,0,3.671M200.4,121.6a62.075,62.075,0,0,0,5.481,7.834c1.791,2.1,3.071,2.38,5.692,1.416.072-.026.172.03.262.051a5.757,5.757,0,0,1-7.667-.014,20.5,20.5,0,0,1-2.371-2.98q-1.656-2.421-3.254-4.881a1.312,1.312,0,0,0-1.3-.719c-3.161.154-2.575-.5-2.63,2.624-.028,1.712-.02,3.423.008,5.135.01.773-.008,1.608,1.008,1.967h-4.57c1.075-.629,1.11-.629,1.113-1.8q.02-8.29.005-16.578c0-.832-.028-1.662-1.181-1.889a71.324,71.324,0,0,1,8.847-.005,4.331,4.331,0,0,1,3.8,5.95,6.4,6.4,0,0,1-2.072,2.962c-.369.31-.758.6-1.178.926" transform="translate(-29.831 -17.434)" fill="#fff"/>
    <path id="Path_4" data-name="Path 4" d="M117.646,116.89c0,.637-.038,1.277.008,1.908.072.962-.473,2.277.252,2.795.792.565,2.088.237,3.15.1a3.877,3.877,0,0,0,3.374-2.465,5.1,5.1,0,0,0-4.3-6.947c-.488-.034-.982,0-1.467-.044-.748-.073-1.072.183-1.036.985.057,1.222.015,2.446.015,3.671m-3.578-5.122a66.532,66.532,0,0,1,8.979.018,4.3,4.3,0,0,1,3.709,5.783,6.352,6.352,0,0,1-2.111,3.1c-.369.312-.76.6-1.183.928a59.972,59.972,0,0,0,5.573,7.943c1.735,2,3.039,2.266,5.591,1.31.075-.029.178.025.268.043a5.733,5.733,0,0,1-7.545.1,18.539,18.539,0,0,1-1.795-2.126c-1.394-1.828-2.647-3.756-3.864-5.705a1.565,1.565,0,0,0-1.524-.853c-2.5.034-2.5,0-2.5,2.47,0,1.76-.018,3.521.01,5.282a1.918,1.918,0,0,0,.98,2.018h-4.579c1.114-.668,1.153-.668,1.155-1.828q.023-8.29.008-16.578c0-.835-.031-1.666-1.175-1.9" transform="translate(-17.816 -17.433)" fill="#fff"/>
    <path id="Path_5" data-name="Path 5" d="M283.224,121.885a7.011,7.011,0,0,0,2.289-.91c1.66-1.184,1.933-2.885,1.616-4.713a4.132,4.132,0,0,0-3.153-3.65,12.051,12.051,0,0,0-2.918-.245c-.5,0-.711.206-.7.685,0,.246-.008.49-.008.735q0,7.931,0,15.862c0,.245.015.489.013.732-.008.8.157,1.47,1.111,1.676h-4.7c1.021-.291,1.121-1.062,1.119-1.941-.013-5.434,0-10.868-.015-16.3,0-.845.176-1.851-1.2-2.027a48.049,48.049,0,0,1,8.4.036c3.132.413,4.669,2.387,4.481,5.46a4.383,4.383,0,0,1-2.619,3.939,6.713,6.713,0,0,1-3.709.66" transform="translate(-43.213 -17.433)" fill="#fff"/>
    <path id="Path_6" data-name="Path 6" d="M185.4,114.4a1.434,1.434,0,0,1-.6-.982,1.333,1.333,0,0,0-1.418-1.029c-2.3,0-4.594,0-6.917,0a13.061,13.061,0,0,0-.126,2.972c-.024,1.764,0,3.525-.008,5.287,0,.469-.008.867.663.856q3.007-.047,6.019-.011c.459.008.745-.343,1.165-.435a4.259,4.259,0,0,1,.026,1.49c-1.263-.505-5.006-.645-7.819-.312,0,2.475-.057,4.962.023,7.448.039,1.2.559,1.661,1.789,1.7,2.052.062,4.112.051,6.164-.006,1.062-.028,1.242-.26,2.013-1.706.036.02.1.041.105.064.176,2.413.173,2.413-2.186,2.413h-11.4c.995-.415,1.031-1.224,1.031-2.057,0-5.383.01-10.765-.018-16.148-.006-.835.152-1.872-1.165-2.021.311-.41.734-.245,1.09-.247q5.139-.024,10.278-.008c1.282,0,1.282.013,1.292,1.266,0,.417,0,.837,0,1.472" transform="translate(-26.98 -17.436)" fill="#fff"/>
    <path id="Path_7" data-name="Path 7" d="M328.482,115.559c-.1,0-.193-.005-.291-.011-.84,2.117-1.678,4.231-2.585,6.528,1.921-.083,3.6.09,5.41-.129-.873-2.207-1.7-4.3-2.534-6.388m-8.533,16.5a3.149,3.149,0,0,0,1.585-2.1c1.381-3.444,2.74-6.9,4.109-10.345q1.457-3.677,2.918-7.352a1.658,1.658,0,0,1,.5-.889c.585.08.541.637.685,1,2.3,5.653,4.568,11.319,6.86,16.975.415,1.024.719,2.153,1.938,2.671H334.4a1.465,1.465,0,0,0,.139-1.461q-1.481-3.507-2.866-7.058a1.1,1.1,0,0,0-1.183-.838c-1.418.034-2.839.041-4.254,0a1.1,1.1,0,0,0-1.173.853c-.9,2.32-1.838,4.627-2.771,6.938a1.29,1.29,0,0,0,.159,1.611Z" transform="translate(-49.972 -17.396)" fill="#fff"/>
    <path id="Path_8" data-name="Path 8" d="M88.509,115.535a46.533,46.533,0,0,0-2.823,6.535c1.9-.083,3.573.088,5.373-.124-.884-2.227-1.717-4.32-2.55-6.411m.635-4.189c.51.289.547.768.7,1.158,2.277,5.612,4.527,11.232,6.81,16.841.413,1.016.65,2.212,1.954,2.663H94.243c.8-.487.477-1.056.271-1.575-.926-2.313-1.893-4.61-2.807-6.924a1.1,1.1,0,0,0-1.17-.854c-1.415.036-2.836.036-4.254,0a1.091,1.091,0,0,0-1.181.838c-.916,2.367-1.877,4.718-2.828,7.071-.206.505-.363,1,.346,1.49H79.734a3.612,3.612,0,0,0,1.942-2.341q3.352-8.518,6.749-17.021a2.756,2.756,0,0,1,.719-1.346" transform="translate(-12.453 -17.391)" fill="#fff"/>
    <path id="Path_9" data-name="Path 9" d="M258.19,121.922h5.37c-.887-2.243-1.72-4.341-2.684-6.78-.964,2.434-1.8,4.54-2.686,6.78m3.609-10.773c.5,1.217.933,2.245,1.351,3.279q3.05,7.544,6.094,15.086a3.29,3.29,0,0,0,2.135,2.413,35.681,35.681,0,0,1-4.507.134,1.348,1.348,0,0,0,.165-1.619c-.946-2.3-1.89-4.612-2.8-6.932a1.185,1.185,0,0,0-1.3-.889c-1.369.049-2.74.044-4.109,0a1.1,1.1,0,0,0-1.214.8c-.918,2.369-1.869,4.725-2.807,7.086-.2.49-.451.985.289,1.516h-2.6c1.057-.454,1.346-1.47,1.72-2.411q3.353-8.445,6.7-16.9a3.185,3.185,0,0,1,.892-1.567" transform="translate(-39.436 -17.36)" fill="#fff"/>
    <path id="Path_10" data-name="Path 10" d="M157.881,132.5a3.252,3.252,0,0,1-.823-1.5c-2.222-5.478-4.418-10.966-6.651-16.437-.435-1.065-.75-2.261-2.351-2.807h4.5a1.308,1.308,0,0,0-.183,1.278q2.986,7.329,5.94,14.671a1.433,1.433,0,0,0,.263.319c.479-.231.511-.721.667-1.108q2.687-6.659,5.334-13.333c.232-.585.8-1.188-.157-1.879h2.957c-1.441.572-1.766,1.662-2.176,2.686q-3.368,8.36-6.718,16.725c-.176.434-.374.859-.6,1.382" transform="translate(-23.124 -17.446)" fill="#fff"/>
    <path id="Path_11" data-name="Path 11" d="M357.194,127.716c0,1.124.01,2.25,0,3.374-.013,1.036-.024,1.062-1.046,1.067-2.787.013-5.576.005-8.363.005h-4.251a1.9,1.9,0,0,0,1.031-2q-.011-8.213-.005-16.429c0-.851-.039-1.68-1.144-1.953h4.694c-1.078.211-1.153.987-1.15,1.864.013,4.792-.008,9.584.013,14.377.01,2.366.889,3.273,3.26,3.4,1.024.057,2.052.036,3.078.018,2.217-.041,2.949-.641,3.46-2.789.075-.32.162-.637.245-.956l.181.023" transform="translate(-53.637 -17.459)" fill="#fff"/>
    <path id="Path_12" data-name="Path 12" d="M245.432,114.63c-.446.015-.611-.34-.858-.544a9.963,9.963,0,0,0-8.711-1.946,8.3,8.3,0,0,0-6.685,9.3,12.913,12.913,0,0,0,2.715,6.713c2.835,3.462,6.576,4.15,10.744,3.374a10.077,10.077,0,0,0,5.038-2.39,3.687,3.687,0,0,1-3.1,2.676,26.538,26.538,0,0,1-9.33.273c-6.784-1.072-9.288-7.708-7.666-12.98a10.9,10.9,0,0,1,9.561-7.732,16.27,16.27,0,0,1,6.233.642,2.643,2.643,0,0,1,2.06,2.614" transform="translate(-35.47 -17.385)" fill="#fff"/>
    <path id="Path_13" data-name="Path 13" d="M302.865,113.393a8.675,8.675,0,0,1-.941-2.374,3,3,0,0,0,2.2.539q6.241,0,12.482,0a3.581,3.581,0,0,0,2.266-.5,7.915,7.915,0,0,1-.962,2.331c.021-1.083-.518-1.145-1.144-1.139-1.418.018-2.841.046-4.256-.011-.765-.03-.889.312-.887.962.02,3.475.008,6.95.01,10.424,0,2.2.01,4.406.008,6.61,0,.8.16,1.482,1.121,1.716H307.9c.319-.4,1.018-.242,1.116-.775a7.231,7.231,0,0,0,.158-1.307q.019-8.225.005-16.447c0-1.14-.024-1.155-1.111-1.165-1.371-.014-2.74,0-4.112,0-.564,0-1.142-.008-1.1,1.139" transform="translate(-47.157 -17.34)" fill="#fff"/>
    <path id="Path_14" data-name="Path 14" d="M299.193,132.1h-4.638c.982-.23,1.116-.975,1.129-1.774.024-1.32.029-2.637.031-3.957q0-5.712,0-11.425c0-.49,0-.98-.044-1.465-.1-1.17-.119-1.178-1.191-1.768H299.4c-.363.4-.91.284-1.1.678a2.878,2.878,0,0,0-.152,1.292q-.011,8.2-.005,16.408c0,.838-.085,1.737,1.044,2.011" transform="translate(-45.994 -17.448)" fill="#fff"/>
    <path id="Path_15" data-name="Path 15" d="M145.409,132.1h-4.6c.216-.413.861-.31.915-.8.041-.386.165-.771.173-1.158.023-1.366.015-2.735.018-4.1,0-3.762.005-7.525-.005-11.289,0-.582-.077-1.167-.108-1.75a1.322,1.322,0,0,0-.956-1.219h4.812c-.484.3-.992.25-1.186.655a2.563,2.563,0,0,0-.142,1.148c-.005,5.521,0,11.043-.008,16.565,0,.859.013,1.671,1.088,1.954" transform="translate(-21.992 -17.459)" fill="#fff"/>
    <path id="Path_16" data-name="Path 16" d="M145.867,31.3a3.147,3.147,0,0,0-.072.542c0,.123.108.149.221.087a.3.3,0,0,0,.137-.463c-.041-.073-.159-.1-.286-.165m16.55-5.009a.655.655,0,0,0-.5-.469c-.176-.031-.271.062-.261.212a.429.429,0,0,0,.379.365c.116.021.256-.067.384-.108m4.676-.655c.124-.415.07-.6-.157-.75-.1-.064-.2-.093-.23.018-.083.315.181.473.386.732m30.061-3.815a.523.523,0,0,0-.732.235c-.019.033.064.172.1.175.3.016.428-.23.629-.409M166.165,33.684c.208,0,.348-.073.286-.237a.454.454,0,0,0-.307-.217c-.113-.025-.31.005-.229.207.044.111.181.183.251.247m-38.174,1.629a.394.394,0,0,0-.374-.387c-.111-.005-.311.1-.322.168-.026.217.136.338.343.335a1.177,1.177,0,0,0,.353-.116m30.94-12.189c.021-.139.343.014.178-.25a.56.56,0,0,0-.371-.167c-.159-.019-.307.089-.222.25.049.093.245.105.415.167m33.039-1.637c-.046.163-.068.207-.073.253-.031.26-.165.547.124.745a.262.262,0,0,0,.242-.07c.127-.235-.059-.433-.122-.646a1.5,1.5,0,0,0-.172-.282m-78.659,3.344c.108-.376-.073-.41-.2-.433-.361-.068-.532.108-.521.472,0,.144.028.311.186.316a.536.536,0,0,0,.531-.355m61.936,6.177c.235-.451.552-.74.214-1.119-.046-.051-.222-.083-.242-.051a1.1,1.1,0,0,0-.1.933,1.321,1.321,0,0,0,.126.237m6.059-9.407c.059-.34-.315-.31-.554-.42a.207.207,0,0,0-.32.147.569.569,0,0,0,.439.657c.2.054.363-.062.435-.384m36.928,8.953c.676-.25,1.207-.359,1.426-1.332a4.837,4.837,0,0,0-1.426,1.332m-34.242,5.9a2.253,2.253,0,0,0,.456-.315c.24-.309.443-.641.142-1.029a.288.288,0,0,0-.371-.1c-.371.186-.335.542-.332.874a4.273,4.273,0,0,0,.105.567M194.48,23.475c.593-1.049.581-1.055.284-1.991a2.6,2.6,0,0,0-.284,1.991M126.625,35.619c.413-.9.5-1.454-.4-1.818a1.974,1.974,0,0,0,.4,1.818m41.154-8.37c.784,1.036.784,1.036,1.7.892-.327-.586-.861-.717-1.7-.892m56.1,1.162c-.64,0-1.124-.005-1.609,0-.319.006-.409.2-.36.485.051.3.237.413.518.3.438-.17.97-.137,1.451-.789m-61.646-5.037a1.257,1.257,0,0,0-1.245-1.243c-.062-.008-.2.111-.2.17.01.737.6.892,1.134,1.09a1.29,1.29,0,0,0,.309-.018m12.3.631q0,.835,0,1.676c0,.193,0,.4.258.415a.414.414,0,0,0,.407-.338,1.748,1.748,0,0,0-.662-1.753m-36.24,2.738c-.309,0-.67.144-.6.428a1.675,1.675,0,0,0,1.106,1.034c.227.09.415-.186.449-.433a1.009,1.009,0,0,0-.959-1.029m69.279,3.815a2.131,2.131,0,0,0,1.147-.7c.163-.208.224-.428-.026-.621a.376.376,0,0,0-.605.051c-.3.351-1.091.449-.516,1.266M201.289,23.2a1.964,1.964,0,0,0,1.688-1.124c-1.338-.608-1.336-.608-1.568.588-.023.126-.057.252-.121.536m-9.25,1.3a1.653,1.653,0,0,0-1.371.931c-.158.278-.42.665-.068.9.379.255.588-.152.745-.439.248-.453.464-.927.694-1.394M166.2,36.455a1.533,1.533,0,0,0-.412-1.18.53.53,0,0,0-.781-.064.581.581,0,0,0-.054.9,1.241,1.241,0,0,0,1.247.348m34.845-11.3a2.594,2.594,0,0,0,1.24-.338.68.68,0,0,0,.389-.715c-.041-.435-.392-.311-.66-.314-.325-.005-.65,0-1.088,0,.029.456-.186.907.118,1.366M164.371,39.01c-.546,1.356-.345,2.325.6,2.879a3.835,3.835,0,0,0-.6-2.879M168.2,26.027c.523,1.047,1.645.98,2.46,1.619-.186-1.431-.619-1.7-2.46-1.619M114.63,24.911a1.776,1.776,0,0,0-1.464,1.217c-.051.177-.134.425.051.528.608.34,1.08-.078,1.572-.346.085-.046.16-.111.246-.154.325-.165.572-.386.409-.789a.746.746,0,0,0-.814-.456m92.082,4.609c-.34.113-.392.389-.379.686.011.227-.064.4-.306.343-1.175-.294-.967.65-1.266,1.271,2-.273,2.289-.634,1.951-2.3M170.741,23.1c-.645.554-.6,1.544-1.549,2.067.813.122,1.407.212,2,.3.183-.926.191-.928-.449-2.369m-8.151,2.111c-.311-1.266-1.343-1.207-2.209-1.353-.386-.064-.825.181-1.111-.3-.082-.139-.3-.065-.33.064a.436.436,0,0,0,.155.371c.25.159.605-.132.861.289.591.98,1.6.905,2.634.931m6.558-3.152a1.841,1.841,0,0,0-1.114-.07c-.477.085-.819.351-.775.877a1.044,1.044,0,0,0,.738.982c.461.137.729-.183.9-.533a1.447,1.447,0,0,0,.247-1.256m52.208,4.957c.44.551,1.219,0,1.356.355.379,1.016.985.523,1.469.3.6-.273.8-.8.332-1.681-.729,1.361-2.149.338-3.158,1.024M176.049,21.9a1.025,1.025,0,0,0-.874,1.14c.029.739.544,1.379,1.065,1.325a1.276,1.276,0,0,0,.9-1.315,1.2,1.2,0,0,0-1.09-1.15m-63.937,5.978c.073-.191.142-.278.129-.351-.105-.621-.222-1.24-.343-1.856-.207-1.044-.359-1.194-1.382-1.315-.435-.051-.734.165-.505.58a8.547,8.547,0,0,0,2.1,2.942m55.061,1.261a3.284,3.284,0,0,0-1.657,3.018c.059.289.165.588.508.64s.531-.2.667-.464a1.7,1.7,0,0,0,.183-.549c.1-.817.188-1.637.3-2.645m-58.016-3.718a3.442,3.442,0,0,0-.152,1.681,2.661,2.661,0,0,0,1.557,2.13.879.879,0,0,0,.683.051c.3-.181.17-.533.059-.784a9.721,9.721,0,0,0-2.147-3.078M170.6,41.244a7.592,7.592,0,0,0-.729-3.1c-.227-.438-.451-.9-1.029-.931-.224-.013-.483-.224-.678.005-.181.207-.069.467.014.691a10.234,10.234,0,0,0,2.423,3.333m15.315-6.324c3.058-.69,4.762-1.84,4.837-3.2-1.6.99-3.659,1.212-4.837,3.2m-7.4-11.172c.493,0,1.021.005,1.258-.511a1.325,1.325,0,0,0-.167-1.371,2.185,2.185,0,0,0-1.351-1.016c-.82-.16-1.026.069-.853.923a6.084,6.084,0,0,1,.093.861c.051.987.142,1.09,1.02,1.114M151.466,34.091a9.046,9.046,0,0,0-3.713-2.1,1.678,1.678,0,0,0-.719-.008c-.408.069-.552.526-.206.737a14.354,14.354,0,0,0,2.557,1.658,1.885,1.885,0,0,0,2.081-.286m20.311-12.346c.232.916-.43,1.781.317,2.46a.8.8,0,0,1,.245.992,2.1,2.1,0,0,0,.235,1.985,6.136,6.136,0,0,0,1.346-4.767c-.719.014-.6.869-1.18.98-.222-.536.245-1.364-.962-1.65m23.2,2.062a12.258,12.258,0,0,0-3.643,3.941c2.795.348,4.606-1.618,3.643-3.941M162.9,40.5a16.023,16.023,0,0,0,.1-3.39c0-.206-.083-.423-.307-.42-1.281.015-2.549-.5-4.091-.111l2.14,1.7A16.8,16.8,0,0,1,162.9,40.5m-9.577-17.161c.376.923.428,1.82,1.424,1.923,1.371.144,2.712-.144,4.264-.105a5.772,5.772,0,0,0-2.671-1.937,16.878,16.878,0,0,1-1.8-.572c-.572-.291-1.049.583-1.667-.013-.251-.242-1.029.462-1.075.943-.049.5.289.67.7.774.727.18.556-.459.829-1.013m42.989,3.047c.892,0,1.622-.036,2.346.01a1.088,1.088,0,0,0,1.235-.966,3.386,3.386,0,0,0-.016-2.663c-.057-.1-.262-.111-.384-.186-.907-.565-1.691-.01-2.524.245-.528.159-.753.418-.606.938a4.861,4.861,0,0,1-.051,2.622M159.418,50.108l.341-.093a10.566,10.566,0,0,0-.013-3.725c-.108-.526-.26-1.144-.748-1.381-1.023-.5-1.487-1.534-2.312-2.212-.327-.267-.647-.559-1.149-.376a6.474,6.474,0,0,0,.577,2.313c.6,1.34,1.007,1.435,2.261.565.217-.149.415-.289.591.02a.562.562,0,0,1-.07.673c-.147.182-.358.1-.538.147-.928.242-.967.265-.532,1.142.493.995,1.06,1.954,1.593,2.929M182.506,36.1c-2.952,1.488-5.614,2.785-6.849,5.739.266.289.413.214.532.159,1.5-.693,2.99-1.4,4.493-2.088a1.265,1.265,0,0,0,.665-.727,17.967,17.967,0,0,0,1.159-3.083m-54.171-1.745c.889-2.05-.529-3.9.062-5.865a25.955,25.955,0,0,1-4.114.5c.256,2.7,2.416,3.751,4.053,5.364M150,35.519c2.155,3.668,5.852,4.924,8.881,7.221.211-.9.374-1.606.541-2.312a1.982,1.982,0,0,0-.76-2.2,31.7,31.7,0,0,0-3.46-2.449,6.711,6.711,0,0,0-1.987-.9c-.386-.082-.928-.216-1.1.127-.456.918-1.2.523-2.12.516m29.978,6.4c-1.51.487-2.647.9-3.81,1.217a2.455,2.455,0,0,0-1.856,1.869,11.739,11.739,0,0,0-.353,1.569c-.338,2.655-.127,5.326-.258,7.992.478.044.552-.307.71-.518a16.686,16.686,0,0,0,2.016-3.728,70.779,70.779,0,0,1,3.552-8.4m8.866-17.878c.518-.242.833.008,1.17-.029,1.17-.123-.678-1.438.6-1.536.038,0-.088-.327-.253-.446a1.8,1.8,0,0,0-1.386-.335c-.624.1-.7.31-.371,1.15-.578.123-1.153.213-1.712.368a4.428,4.428,0,0,0-3.2,5.548,3.009,3.009,0,0,1-.4,2.761,5.26,5.26,0,0,0-.361.636c-.167.343-.186.683.212.872.317.147.557-.073.75-.3a2.062,2.062,0,0,0,.389-.936c.122-.524.237-1.047.4-1.558.1-.311.219-.559.727-.469,2.032.361,3.31-.548,3.821-2.567a4.917,4.917,0,0,0-.386-3.161m-18.274,30.1a9.8,9.8,0,0,0,.58-2.983c.454-5.405-1.7-9.8-5.362-13.585-.144-.147-.327-.289-.5-.176a.515.515,0,0,0-.16.655,1.557,1.557,0,0,0,.392.6,2.6,2.6,0,0,1,.683,3.066,3.218,3.218,0,0,0-.134,2.147c.527-.235.067-.856.464-1.129.4,3.633.75,4.635,4.04,11.4m-9.99-18.2c.528-.046,1.116-.064,1.694-.157a1.142,1.142,0,0,0,1.072-1.036c.065-.593-.3-.887-.789-1.089-.814-.332-1.634-.649-2.436-1.013-1.1-.5-1.149-.608-.7-1.737.214-.539.219-.938-.348-1.219-2.272-1.126-4.212-2.877-6.715-3.563-.374-.1-.505-.266-.23-.593.208-.245-.036-.346-.155-.444-.608-.492-1.219-.98-1.848-1.44a.832.832,0,0,0-.967-.127,3.409,3.409,0,0,1-2.2.626.852.852,0,0,0-.866.835c-.039.418.013.779.516.908.343.084.675.25.655.673-.041.912.6,1.273,1.261,1.622s1.31.657,1.967.981a2.593,2.593,0,0,1,1.559,1.823,2.948,2.948,0,0,0,.967,1.607,13,13,0,0,0,7.563,3.343m.183,9.27a7.037,7.037,0,0,0,.31,4.091c.108.256.369.451.134.779-.8,1.106-.292,2.256-.07,3.385a12.208,12.208,0,0,1,.619,3.725,1.456,1.456,0,0,0,1.153,1.755,3.379,3.379,0,0,1,1.954,1.645,16.442,16.442,0,0,0,1.9,2.769c1.016,1.088,1.727.946,2.223-.434a7.53,7.53,0,0,0,.116-4.191,26.065,26.065,0,0,0-4.245-9.717,11.574,11.574,0,0,0-4.1-3.807M139.213,41.95a7.815,7.815,0,0,1,2.153.385,3.8,3.8,0,0,1,2.287,1.577c1.013,1.38,2.189,2.78,4.083,3.146a2.009,2.009,0,0,1,1.392,1.4,5.152,5.152,0,0,0,1.853,2.215,26.291,26.291,0,0,1,4.373,3.887,5.667,5.667,0,0,0,3.88,1.828c.651.062.9-.186.837-.823a9.441,9.441,0,0,0-.75-2.815,33.272,33.272,0,0,0-2.894-4.919,10.72,10.72,0,0,1-2-4.661,6.642,6.642,0,0,0-.508-1.675c-.24-.6-.784-1.057-1.371-.843-.91.335-1.315-.2-1.851-.683-.23-.2-.413-.552-.786-.489-.456.051.119.768-.507.706a1.187,1.187,0,0,1-.392-.758,1.8,1.8,0,0,0-1.3-1.609,20.746,20.746,0,0,1-5.777-3.681,5.468,5.468,0,0,0-3.645-1.3,7.6,7.6,0,0,1-2.034-.209,3.142,3.142,0,0,1-2.269-1.819c.371-.312.629.051.892.188a10.545,10.545,0,0,0,2.32.881,3.952,3.952,0,0,0,2.382-.015,1.066,1.066,0,0,0-.632-.743c-.6-.271-.917-.575-.629-1.34.227-.606-.232-1.135-.716-1.488-.668-.49-1.382-.916-2.086-1.353-.159-.1-.394-.242-.528-.191a11.516,11.516,0,0,1-3.846.616c.889,1,1.335,2.126,2.294,2.846a1.049,1.049,0,0,1-1.065-.1c-.856-.691-2.062-.694-2.736-1.612a1.854,1.854,0,0,0-.58,1.563,8.523,8.523,0,0,0,.619,2.523c.122.377.534.71.219,1.168-.289.176-.613-.5-.838-.01-.214.469.08.818.5,1.047.536.3.306-.464.634-.462.518-.026.477.489.706.739.214.238.446.426.753.24,1.287-.784,2.106.008,2.914.84a4.968,4.968,0,0,0,2.25,1.582,2.012,2.012,0,0,1,1.613,2.153,2.95,2.95,0,0,0,.828,2.091c-.743.392-.294.828.03,1.124a6.555,6.555,0,0,0,3.32,1.3c-.175-1.055-.889-1.212-1.482-1.505-.635-.315-1.444-.278-1.9-.942m-8.767-.482a1.539,1.539,0,0,0,1.054.371,2.232,2.232,0,0,0-1.039-.683c-.926-.72-1.877-1.406-2.771-2.161a6.651,6.651,0,0,1-2.423-3.751c-.2-1.049-.381-1.943-1.43-2.49-.42-.217-.573-.781-.686-1.261a11.942,11.942,0,0,1-.345-1.867c-.044-.636-.327-.794-.921-.829a6.2,6.2,0,0,0-2.59.36,6.788,6.788,0,0,1-4.728.153,2.912,2.912,0,0,0-.565-.158c-.82-.1-1.2.235-1.186,1.057a3.724,3.724,0,0,0,.879,2.131,17.4,17.4,0,0,0,6.69,5.568,66.389,66.389,0,0,0,10.062,3.558m49.091-14.5c-.235.778-1.374,1.306-.645,2.366.051.078-.152.338-.247.505a4.2,4.2,0,0,1-1.51,1.554c-.581.359-1.14.753-1.683,1.165a2.141,2.141,0,0,0-.938,1.428c-.232,1.831.181,3.628.2,5.484a37.507,37.507,0,0,1,6.6-4.723c.866-.467,1.044-.655.381-1.505-.652-.833-.667-1.214.01-1.759a2.357,2.357,0,0,0,.789-2.6,3.508,3.508,0,0,1,.317-2.689c.846-1.289.83-1.3-.073-2.441.8-.2,1.411-.616,2.9-1.99.2-.189.325-.047.485.043.51.284.976.374,1.283-.34-.995-.206-1.908.224-2.856.015a7.574,7.574,0,0,0-2.045,0,.927.927,0,0,0-.9.632c-.122.4.154.624.449.83.191.132.438.235.433.531-.652.168-1.351-.711-2.077.149.605.08,1.134.155,1.17.864a1.981,1.981,0,0,1-1.483,1.923,9.888,9.888,0,0,0,.508-1.209c.186-.676-.029-.928-.7-.82-1.534.248-3.145.336-3.98,2.013-.163.327-.554.542-.838.81-.8.75-.794,1,.3,1.312a1.277,1.277,0,0,1,1.07,1.583.316.316,0,0,0,.176.368c1.291-.5,1.33-.5,1.271-1.66a.836.836,0,0,1,.284-.758,5.22,5.22,0,0,1,1.359-1.088M189.466,39c-1.462.356-2.928.694-4.382,1.072a6.178,6.178,0,0,0-3.684,2.722,14.207,14.207,0,0,0-1.606,3.759,37.862,37.862,0,0,1-2.482,7.03c-.083.1-.219.224-.088.343s.242,0,.314-.129a4.809,4.809,0,0,0,1.978-2.077,27.477,27.477,0,0,1,4.849-5.615,25.9,25.9,0,0,0,3.733-4.088,6.181,6.181,0,0,0,1.418-2.975c.129-.023.186-.108.105-.159-.108-.07-.175-.005-.154.118M171.6,29.652c-.642-.219-1.3-.395-1.921-.665-.657-.286-1.018-.055-1.248.546a14,14,0,0,0-.683,2.689c-.311,1.835.088,3.284,2.013,3.98a2.731,2.731,0,0,1,.382.216,2.551,2.551,0,0,1,1.533,2.3,1.831,1.831,0,0,0,.622,1.588,2.948,2.948,0,0,0,.025-1.472c-.059-.828-.134-1.652-.167-2.483a3.657,3.657,0,0,1,.964-2.967,1.391,1.391,0,0,0,.474-1.037c-.005-.311-.049-.624-.438-.626-1.289-.01-1.3-.9-1.289-1.818.549.23.766.872,1.336,1.08.3.111.585.183.686-.221.126-.508.087-1.055-.436-1.263-.575-.232-1.16-.774-1.848-.273-.068.051-.005.278-.005.423M132.82,37c-1.623-.624-3.2.193-5.037.008,2.1,3.846,5.921,4.279,9.252,5.617.485-2.457.2-3.078-1.809-4.114-.477-.247-.964-.474-1.431-.737-.188-.105-.479-.173-.4-.505.224-.27.554.075.827-.17a1.487,1.487,0,0,0-1.459-.905c-.139.361.42.488.059.808m61.375-2.385a12.672,12.672,0,0,0,2.983-.586.767.767,0,0,0,.6-.379c.358-.773,1.067-.76,1.748-.8a19.743,19.743,0,0,0,2.91-.245,2.313,2.313,0,0,0,2.011-1.856,2.305,2.305,0,0,1,1.454-1.923c-.224-.451-.616-.085-.884-.453-.587-.818-1.351-.761-1.807.077a2,2,0,0,1-1.184,1,8.682,8.682,0,0,0-1.2.528c-1.759.936-3.4,2.131-5.476,2.328-.24.023-.575.245-.464.453.484.9-.379,1.279-.657,1.877-.08.031-.16.06-.243.088.052.036.106.105.153.1.1-.015.118-.105.062-.213m-8.09,3.676c.954-.2,1.9-.44,2.859-.6,2.482-.407,3.88-2.046,4.857-4.189a2.684,2.684,0,0,0-.232-2.385c-.255-.533-.549-1.067-1.379-.863a4.267,4.267,0,0,1-.947,2.769,3.569,3.569,0,0,1-2.884,1.9,6.369,6.369,0,0,0-1.478.612c-.587.216-.881.523-.634,1.2a1.6,1.6,0,0,1-.327,1.371l-.343.2a.38.38,0,0,0,.508-.019m16.172-11.44a1.355,1.355,0,0,1-1.451.423c-.472-.108-.952-.2-1.431-.276a7.256,7.256,0,0,0-5.4,1.3c-.887.6-.9.946-.17,1.722a4.322,4.322,0,0,1,.737.894c.479.9.489.894,1.469.543,1.748-.626,3.308-1.667,5.025-2.332,1.054-.408,1.642-.905,1.446-2.073.2-.113.289-.343.139-.458-.207-.16-.256.144-.369.252m-59.193,3.666c.523-.435.915.418,1.487.114a19.356,19.356,0,0,0-4.7-4.308c-.459,1.618-.255,2.155.848,2.877.586.384,1.38.4,1.807,1.046-1.109.333-1.83-.662-2.79-.892-.147,1.395.093,1.952,1.4,2.834q2.557,1.72,5.009,3.58a14.709,14.709,0,0,0,2.6,1.632,2.169,2.169,0,0,0,1.678.392,2.64,2.64,0,0,0-1.214-1.441c-.8-.562-1.629-1.08-2.457-1.6a4.987,4.987,0,0,1-2.1-1.988,8.881,8.881,0,0,0-1.577-2.248m15.573-3.55c.676.23,1.261.732,2.052.606.549-.088.748.312.921.748a2.115,2.115,0,0,1-.078,1.431c-.142.5-.73.884-.482,1.469s.868.76,1.33,1.106c.273.206.575.371.862.559.469.306.737.072.878-.359a6.619,6.619,0,0,0,.116-3.047,2,2,0,0,0-1.8-1.975c-.6-.088-1.464-.085-1.413-1.111.008-.186-.139-.262-.273-.289-.613-.113-1.09.408-1.691.379-.361-.018-.284.32-.394.505-.356.322-.493-.059-.668-.224-.979-.923-1.211-.967-2.73-.386,1.786,1.178,3.774,1.81,5.635,3.2-.1-1.1-.76-1.289-1.229-1.662-.361-.289-1.034-.256-1.031-.947M148.63,30.27c.294,1.024,1.253,1.09,2.034,1.4.2.078.5.2.616-.108.093-.256-.106-.451-.32-.586-.657-.4-1.483-.433-2.093-.943-.631-.814-1.513-1.41-2.137-2.2-.539-.678-.774-1.6-1.722-1.856.074-.559.572-.889.487-1.43-.039-.24-.008-.505-.271-.629a.766.766,0,0,0-.693.137,1.171,1.171,0,0,0-.516.848c-.073.281-.049.671-.327.784-.8.325-.529.846-.243,1.284,1.225,1.874,2.741,3.325,5.184,3.3m15.934,15.795c-.074.1-.051.155.068.163a.165.165,0,0,0,.015-.08c0-.2.029.075-.113-.059-.7-2.524-2.392-4.346-4.2-6.223-.562,1.526-.6,2.214.01,3.091a8.264,8.264,0,0,0,4.22,3.109m-.915-23.456c-.271-.314.361-.851-.32-1.126-.315.529-.405.931.343,1.106-.028,1.356-.028,1.356,1.807,1.32a4.607,4.607,0,0,0-.511-1.618c-.616-.222-.843.423-1.32.319m-.026,3.748c.251-.257.537.148.864-.105a2.9,2.9,0,0,0-1.029-1.2c-.472.582.381.848.186,1.325-.019.044-.021.116-.051.132-.243.123-.608.183-.246.567.15.159.371.232.51.1.278-.273-.09-.379-.2-.557a.7.7,0,0,1-.036-.263m29.54-3.085a.952.952,0,0,0,.317-1.321c-.17.457-.312.835-.454,1.212-.127.034-.271.149-.2.237.181.227.25-.013.34-.128m-76.8,2.539c.157-.075.41.069.472-.209.005-.028-.051-.1-.083-.1a.336.336,0,0,0-.4.312l-.024.041Zm101.03,4.99c.116-.057.23-.113.346-.167-.134.02-.281.093-.338-.114-.33-.365.088-.482.242-.657a13.555,13.555,0,0,0,1.667-2.4.772.772,0,0,0-.469-1.18c-.51-.2-.548.181-.562.554-.01.316-.186.451-.467.284-.57-.34-1.167.039-1.716-.09a1.268,1.268,0,0,0-1.73,1.072c-1.278-.887-1.884-.957-2.743-.348-.412.292-.775.645-.624,1.212.132.493.559.613,1.011.711a3.217,3.217,0,0,0,2.085-.343.584.584,0,0,1-.219.613c-.892.74-1.853.364-2.8.183-.237-.044-.5-.147-.65.124a.72.72,0,0,0,.059.824,1.891,1.891,0,0,0,1.444.591,9.292,9.292,0,0,0,3.725-.64c.376-.126.71-.538,1.179-.237.25.266-.083.315-.17.454a18.675,18.675,0,0,1-7.538,1.539c-1.251-.073-2.488-.139-2.988,1.472-.508-1.013-.523-.992-1.315-.549-.35.2-.487.671-1.075.6-1.291-.152-2.475.457-3.709.717-.583.121-.97.425-.879,1.116a1.532,1.532,0,0,1-.9,1.547,3.766,3.766,0,0,1-2.3.784c.046-.608.667-.58.995-.877.554-.507,1.248-.892,1.359-1.775-3.859.376-8.556,3.044-8.494,5.826.8.1,1.252-.423,1.678-.956.364-.456.647-.977,1.016-1.429a1.649,1.649,0,0,1,1.317-.807c.72.015,1.436-.005,2.155-.008a2.811,2.811,0,0,1-1.266.613,4.343,4.343,0,0,0-2.185,1.709,24.566,24.566,0,0,0,6.045-1.856,44.134,44.134,0,0,1,8.468-2.761c1.338-.261,2.674-.557,3.994-.9a4.729,4.729,0,0,0,3.013-1.634,1.163,1.163,0,0,1,.887-.469,2.112,2.112,0,0,0,1.913-1.736.771.771,0,0,0,.543-.613m-25.106-6.929c-.121.127-.358.256-.1.429.111.072.235-.093.273-.235.132-.034.276-.137.219-.243-.132-.247-.268-.041-.392.049m30.561-7.839c.224.059.492-.085.73.219a1.956,1.956,0,0,1-1.132.783.413.413,0,0,0-.319.431.379.379,0,0,0,.376.374,3.376,3.376,0,0,1,2.283.827.43.43,0,0,0,.4.065c.84-.709,1.668-.183,2.5-.008a10.737,10.737,0,0,0,2.338.129c1.114-.008,2.269-.159,3.179.743.181.178.454.108.694.137a2.866,2.866,0,0,1,2.109.83,2.309,2.309,0,0,0,1.031.516,18.4,18.4,0,0,0,2.116.59c.755.15.812,1.018,1.549,1.3.683.263,1.276.838,2.106.84-.281.874-1.026.073-1.379.531.152,1.06.876.5,1.366.457.266.428-.294.6-.256.977l1.558.147c.057.508-.263.516-.554.565a58.021,58.021,0,0,1-6.726.459c-1.564.075-3.132.057-4.7.111-.446.016-.936-.123-1.2.552a.715.715,0,0,1-1.1.09c-.652-1.3-1.851-.711-2.79-.868-.634-.109-1.178.425-1.484,1.029a4.112,4.112,0,0,1-3,2.124c-.477.105-.946.245-1.423.355a5.311,5.311,0,0,0-3.444,2.287,8.548,8.548,0,0,1-3.962,2.914,42.617,42.617,0,0,1-7.878,2.253,35.206,35.206,0,0,0-3.921,1.191c-3.029,1.1-6.071,2.176-9.113,3.245a30,30,0,0,0-3.485,1.534,7.659,7.659,0,0,0-2.88,2.444,59.953,59.953,0,0,1-9.406,10.252,12.792,12.792,0,0,0-4.009,6.345,60.778,60.778,0,0,0-1.6,6.089,11.068,11.068,0,0,0,1.515,8.025,10.34,10.34,0,0,0,1.748,1.969,6.928,6.928,0,0,1,.716.735c.374.484.235.791-.395.879a3.381,3.381,0,0,1-.876,0,5.8,5.8,0,0,0-2.893.232,3.365,3.365,0,0,1-2.439-.078,3.782,3.782,0,0,0-2.449-.088c-.952.268-1.944.186-2.9.374a1.7,1.7,0,0,1-.856-.122c-.675-.242-.809-.636-.464-1.247a1.294,1.294,0,0,1,.261-.354c1.83-1.467,2.148-3.655,2.683-5.72a25.3,25.3,0,0,0,.539-3.179,6.3,6.3,0,0,0-.521-3.578c-.212-.444-.444-.874-.624-1.331a8.972,8.972,0,0,0-4.887-5.024c-4.364-1.946-7.943-4.962-11.454-8.095-.531-.474-1.186-.861-1.24-1.727-.024-.4-.462-.611-.75-.863a15.376,15.376,0,0,0-4.506-2.7c-3.6-1.418-7.334-2.415-10.985-3.666-2.588-.887-5.135-1.884-7.757-2.678a16.484,16.484,0,0,1-9.239-7.076,12.222,12.222,0,0,0-4.228-4.365,3.183,3.183,0,0,1-1.537-3.866c-1.371,0-2.632-.005-3.9,0a6.855,6.855,0,0,1-1.317.041,25.086,25.086,0,0,0-6.839.051c-.83.062-1.666.044-2.5.023a4.959,4.959,0,0,1-1-.188c-.448-.108-.4-.845-.941-.8-.371.029-.7.369-1.114.139.307-.835.307-.835,1.552-.933.109.062.235.191.341.049s.005-.25-.139-.311a1.707,1.707,0,0,0-1.444-.859,15.963,15.963,0,0,0-3.89-.521.852.852,0,0,1-.936-1.026c.074-.662.58-.58,1-.521a17.455,17.455,0,0,0,6.241-.575,7.978,7.978,0,0,1,1.885-.247c.734.015,1.461.01,1.879-.808.252-.487.673-.389,1.142-.211.562.213,1.224.557,1.647-.281a.445.445,0,0,1,.212-.173c.9.722,1.451-.338,2.2-.425a22.826,22.826,0,0,1,2.343.029,2.52,2.52,0,0,0,2.023-.652,1.754,1.754,0,0,1,1.624-.469c1.611.162,3.225-.158,4.838.036a4.744,4.744,0,0,0,1.294-.192c.386-.067.809-.286,1.147-.191,1.47.413,2.668-.3,3.924-.819a8.159,8.159,0,0,1,4.86-.689c.634.129,1.356.276,1.869-.44.265-.369.7-.237,1.09-.149.572.128,1.142.262,1.722.353.276.041.729.09.768-.222.114-.951.771-.649,1.307-.667.877-.028,1.905.42,2.423-.758,1.088-.113,1.83-1.07,3.034-1.062a11.317,11.317,0,0,0,3.876-.706,10.238,10.238,0,0,1,5.216-.237c1.835.3,3.655.725,5.493-.005a1.873,1.873,0,0,1,1.547.281,2.032,2.032,0,0,0,1.83.132c.134-.057.335-.193.4-.147,1.01.739,1.7-.292,2.544-.441.464-.082.807-.381,1.407-.265.967.186,1.317-.431,1.036-1.454a4.774,4.774,0,0,0-.183-.557c-.2-.505.046-.764.511-.813.867-.09,1.786.005,2.253-1.018.116-.256.436-.073.668-.034a10.3,10.3,0,0,0,2.926.018,1.924,1.924,0,0,0,1.4-.65,2.852,2.852,0,0,1,2.312-.675c1.367-.049,2.738.031,4.109.041.879.005,1.764.031,2.637-.036,1.318-.1,1.258-.039,2.715.846.565.34,1.132,1.315,2.181.562.283-.2,1.051.441,1.4.862.24.291,1.266.585.348,1.291-.2.152.127.451.217.43.57-.128,1.046.694,1.665.124.2-.178.537-.064.8.057-.163.608-1,.511-1.081,1.343,1.364-.029,2.728.281,4.055-.129s2.823-.394,3.916-1.459c.268-.263.546.015.814.085.982.26,1.947.7,2.967.079.163-.1.475.008.7.07,1.223.34,2.447.686,3.661,1.056a2.083,2.083,0,0,1,1.327.756,2.213,2.213,0,0,0,1.575.66,3.164,3.164,0,0,1,1.985.907,2.217,2.217,0,0,0,1.83.562c.586-.044,1.173-.044,1.759-.1.425-.036.851-.222,1.132.32.132.252.443.118.675.105,1.715-.085,3.423-.02,5.138.041a3.189,3.189,0,0,0,2.135-.224c.358-.24.851.116,1.232.312a5.866,5.866,0,0,0,2.464.863.773.773,0,0,1,.774,1.006c-.113.074-.208.181-.108.306s.23.051.343-.013" transform="translate(-13.395 -0.824)" fill="#fff"/>
    <path id="Path_17" data-name="Path 17" d="M213.286,46.341v1.647q0,20.046,0,40.1c0,1.743.2,1.629-1.681,1.629H132.439c-1.756,0-1.619.088-1.619-1.557q0-18.507.005-37.013a2.53,2.53,0,0,1,.144-1.353,7.869,7.869,0,0,1,2.228.489.636.636,0,0,1,.528.753c-.023.34-.005.686-.005,1.029V84.519c0,.294,0,.588,0,.882.015,1.407.015,1.418,1.48,1.418q14.833.008,29.668,0a8.253,8.253,0,0,0,.879-.005,1.21,1.21,0,0,1,1.456.83,3.066,3.066,0,0,0,3.408,1.742,17.118,17.118,0,0,0,3.2-.413,2.411,2.411,0,0,1,1.583.088,4.9,4.9,0,0,0,3.444.034,4.613,4.613,0,0,1,2.027-.165c1.591.152,3.067.023,3.787-1.743.2-.482.646-.355,1.02-.358,1.813-.008,3.622,0,5.434,0h17.626c.343,0,.685-.013,1.029,0,.428.013.626-.183.619-.608-.005-.392.005-.784.005-1.176V48.914a8.526,8.526,0,0,0-.008-1.029c-.078-.675.2-.967.874-1.055a19.308,19.308,0,0,0,2.036-.489" transform="translate(-20.429 -7.238)" fill="#fff"/>
    <path id="Path_18" data-name="Path 18" d="M130.961,11.913a3.755,3.755,0,0,1-.134-.6c-.005-3.426.01-6.852-.018-10.278-.005-.743.206-1.109.992-1.018a7.682,7.682,0,0,0,.882.005q39.353,0,78.705.005c2.189,0,1.883-.26,1.9,1.835.013,2.3-.008,4.6-.019,6.9a1.068,1.068,0,0,1-.092.286,1.937,1.937,0,0,1-2.266-.547,1.526,1.526,0,0,1-.526-1.062c.013-1.273-.01-2.544.008-3.817.005-.482-.144-.743-.667-.7-.242.018-.49,0-.735,0-1.026,0-2.055.01-3.083,0-6.686-.085-13.39.327-20.053-.557-4.024.464-8.11-.472-12.116.526a5.607,5.607,0,0,1-1.317.031q-18.355,0-36.709,0c-.294,0-.587-.005-.881,0-1.091.025-1.1.025-1.109,1.153-.008,2.056.008,4.111-.005,6.168-.005,1-.024,1.024-1.065,1.029-.616.005-1.227-.046-1.686.645" transform="translate(-20.431 0)" fill="#fff"/>
    <path id="Path_19" data-name="Path 19" d="M138.341,39.6c-.477-.013-.4-.307-.312-.608.451.026.557.227.312.608" transform="translate(-21.548 -6.091)" fill="#fff"/>
    <path id="Path_20" data-name="Path 20" d="M142.548,35.172c.2.015.484-.051.315.325-.253.034-.387-.044-.315-.325" transform="translate(-22.261 -5.493)" fill="#fff"/>
    <path id="Path_21" data-name="Path 21" d="M142.2,34.82c.193.023.345.088.32.327-.237.018-.462.023-.32-.327" transform="translate(-22.203 -5.438)" fill="#fff"/>
    <path id="Path_22" data-name="Path 22" d="M196.857,30.964a.38.38,0,0,1,.322-.325c.113.327-.068.361-.322.325" transform="translate(-30.746 -4.785)" fill="#fff"/>
    <path id="Path_23" data-name="Path 23" d="M197.2,30.614a.389.389,0,0,1,.322-.322c.132.345-.024.405-.322.322" transform="translate(-30.801 -4.731)" fill="#fff"/>
    <path id="Path_24" data-name="Path 24" d="M200.341,26.814c.2.015.472-.034.32.327-.181-.039-.354-.083-.32-.327" transform="translate(-31.29 -4.188)" fill="#fff"/>
    <path id="Path_25" data-name="Path 25" d="M228.167,39.323c-.745,1.315-.745,1.315-1.7.678.492-.2.948-.376,1.7-.678" transform="translate(-35.371 -6.142)" fill="#fff"/>
    <path id="Path_26" data-name="Path 26" d="M187.46,34.124c.242-.029.31.122.327.322-.286.072-.317-.116-.327-.322" transform="translate(-29.279 -5.329)" fill="#fff"/>
    <path id="Path_27" data-name="Path 27" d="M141.511,42.817c.389-.266.554-.083.616.307-.35.188-.543.064-.616-.307" transform="translate(-22.102 -6.668)" fill="#fff"/>
    <path id="Path_28" data-name="Path 28" d="M241.678,35.153a1.074,1.074,0,0,1,.083.2c.005.029-.049.07-.078.1-.2.046-.405.267-.606-.006.044-.414.176-.646.6-.3" transform="translate(-37.653 -5.464)" fill="#fff"/>
    <path id="Path_29" data-name="Path 29" d="M152.993,34.816c.3-.083.606-.159.621.32-.252-.021-.538.025-.621-.32" transform="translate(-23.895 -5.428)" fill="#fff"/>
  </g>
</svg>
